<?xml version="1.0" encoding="utf-8"?>
<!-- Generator: Adobe Illustrator 23.0.1, SVG Export Plug-In . SVG Version: 6.00 Build 0)  -->
<svg version="1.1" id="Camada_1" xmlns="http://www.w3.org/2000/svg" xmlns:xlink="http://www.w3.org/1999/xlink" x="0px" y="0px"
	 viewBox="0 0 434 127" style="enable-background:new 0 0 434 127;" xml:space="preserve">
<style type="text/css">
	.st0{fill:#EDE7E3;}
	.st1{fill:#FFA62B;}
</style>
<g>
	<path class="st0" d="M15.5,87.6c-1.2-0.1-2.7-0.2-4.4-0.4S8,86.6,6.8,86c-1.1-0.5-2.3-1.4-3.5-2.5c-2.2-1.9-3.4-5-3.4-9.5V60.9
		c0-3.6,0.8-6.6,2.5-9c0.6-0.9,1.5-1.7,2.7-2.4c1.2-0.7,2.4-1.3,3.6-1.8c1-0.3,2.3-0.6,3.9-0.8c1.6-0.2,3.1-0.4,4.3-0.4h4.3
		c3.1,0,7.1,0.5,12,1.5v7.9c-5.6-1.3-9.9-2-12.9-2c-5.5,0-8.3,1.9-8.3,5.6V74c0,4.2,3,6.3,9.1,6.3c2.9,0,7.2-0.6,12.7-1.8v7.9
		c-5,0.9-9.4,1.4-13.4,1.4C18.4,87.8,16.7,87.7,15.5,87.6z"/>
	<path class="st0" d="M53.5,87.5c-1.6-0.2-3.3-0.5-5.1-1c-2-0.5-3.5-1.3-4.7-2.3c-1.2-1-2.2-2.4-3-4.3c-0.8-1.8-1.2-4-1.2-6.5V61.7
		c0-2.6,0.4-4.9,1.2-6.9c0.8-2,1.9-3.5,3.2-4.6c1.1-0.9,2.7-1.7,4.5-2.3c1.9-0.6,3.7-1,5.5-1.2c2.1-0.1,4-0.2,5.6-0.2
		c2.5,0,4.5,0.1,6,0.2c1.5,0.1,3.2,0.5,5,1c2,0.6,3.6,1.4,4.8,2.5c1.2,1,2.3,2.5,3.2,4.4c0.8,2,1.2,4.3,1.2,7v11.7
		c0,2.5-0.4,4.6-1.2,6.5c-0.8,1.9-1.8,3.3-3.1,4.3c-1.1,0.9-2.6,1.7-4.5,2.3c-1.9,0.6-3.7,0.9-5.5,1.1c-1.6,0.2-3.6,0.2-5.9,0.2
		C57.1,87.8,55.1,87.7,53.5,87.5z M64.7,79.8c1.1-0.4,2-0.9,2.4-1.7s0.7-1.9,0.7-3.4v-15c0-2.2-0.6-3.7-1.7-4.6
		c-1.1-0.9-3.3-1.3-6.5-1.3c-3.2,0-5.3,0.4-6.5,1.3c-1.1,0.9-1.7,2.4-1.7,4.6v15c0,1.5,0.2,2.6,0.7,3.4c0.5,0.8,1.3,1.3,2.4,1.7
		s2.8,0.5,5.1,0.5C61.8,80.3,63.5,80.1,64.7,79.8z"/>
	<path class="st0" d="M93.9,86.7c-2.2-0.7-3.8-2-4.7-3.9c-0.9-1.9-1.3-4.9-1.3-8.9V58.5c0-4.4,1.2-7.4,3.7-9.3
		c2.5-1.8,6.5-2.7,12.1-2.7c2.6,0,4.7,0.1,6.2,0.4c1.5,0.3,2.7,0.8,3.6,1.6c0.9,0.7,1.9,1.8,2.9,3.2V29.7h11.9v57.3h-11.5v-4.5
		c-1,1.6-1.9,2.7-2.7,3.3c-0.8,0.6-1.9,1.1-3.3,1.4c-1.5,0.4-3.7,0.6-6.5,0.6C99.6,87.8,96.1,87.4,93.9,86.7z M113.2,79.9
		c1.3-0.3,2.1-0.8,2.5-1.5c0.4-0.7,0.7-1.8,0.7-3.3v-16c0-1.4-0.2-2.4-0.7-3.2c-0.5-0.7-1.3-1.3-2.5-1.6c-1.2-0.3-2.9-0.5-5.3-0.5
		c-2.5,0-4.3,0.1-5.4,0.4c-1.1,0.3-1.8,0.8-2.2,1.6c-0.4,0.7-0.5,2-0.5,3.6v15.1c0,1.5,0.2,2.7,0.5,3.5c0.4,0.8,1,1.4,2.1,1.7
		s2.6,0.5,4.8,0.5C110,80.3,111.9,80.2,113.2,79.9z"/>
	<path class="st0" d="M139.3,33.8h40.5v9.1h-27.7v12.2h25v9.1h-25v13.7h28.6v9.1h-41.3V33.8z"/>
	<path class="st0" d="M187.9,86.5v-7.9c7.6,1.1,12.9,1.7,15.8,1.7c2.5,0,4.4-0.2,5.6-0.7c1.2-0.5,1.8-1.4,1.8-2.7v-2.5
		c0-1.4-0.4-2.3-1.1-2.9c-0.8-0.6-2.3-0.9-4.5-0.9h-5.2c-4.2,0-7.4-0.8-9.7-2.5c-2.3-1.7-3.4-4.1-3.4-7.3V56c0-3.4,1.6-5.9,4.9-7.3
		c3.3-1.4,8.2-2.2,14.8-2.2c2.6,0,7.3,0.2,14.1,0.7v7.6c-8.5-0.7-13.3-1-14.4-1c-3.2,0-5.3,0.2-6.3,0.7c-0.9,0.5-1.3,1.4-1.3,2.7
		v2.1c0,0.7,0.4,1.3,1.1,1.8c0.7,0.5,1.7,0.8,3.1,0.8h5.2c9.7,0,14.6,3.2,14.6,9.5v5c0,1.9-0.4,3.6-1.1,5c-0.7,1.4-1.6,2.5-2.8,3.4
		c-1.1,0.8-2.5,1.4-4.2,1.8c-1.7,0.4-3.5,0.7-5.4,0.9c-1.7,0.2-3.7,0.2-5.9,0.2C199.3,87.8,194.1,87.4,187.9,86.5z"/>
	<path class="st0" d="M246.1,87.6c-1.2-0.1-2.7-0.2-4.4-0.4s-3.2-0.6-4.3-1.1c-1.1-0.5-2.3-1.4-3.5-2.5c-2.2-1.9-3.4-5-3.4-9.5V60.9
		c0-3.6,0.8-6.6,2.5-9c0.6-0.9,1.5-1.7,2.7-2.4c1.2-0.7,2.4-1.3,3.6-1.8c1-0.3,2.3-0.6,3.9-0.8c1.6-0.2,3.1-0.4,4.3-0.4h4.3
		c3.1,0,7.1,0.5,12,1.5v7.9c-5.6-1.3-9.9-2-12.9-2c-5.5,0-8.3,1.9-8.3,5.6V74c0,4.2,3,6.3,9.1,6.3c2.9,0,7.2-0.6,12.7-1.8v7.9
		c-5,0.9-9.4,1.4-13.4,1.4C248.9,87.8,247.3,87.7,246.1,87.6z"/>
	<path class="st0" d="M284.1,87.5c-1.6-0.2-3.3-0.5-5.1-1c-2-0.5-3.5-1.3-4.7-2.3c-1.2-1-2.2-2.4-3-4.3c-0.8-1.8-1.2-4-1.2-6.5V61.7
		c0-2.6,0.4-4.9,1.2-6.9c0.8-2,1.9-3.5,3.2-4.6c1.1-0.9,2.7-1.7,4.5-2.3c1.9-0.6,3.7-1,5.5-1.2c2.1-0.1,4-0.2,5.6-0.2
		c2.5,0,4.5,0.1,6,0.2c1.5,0.1,3.2,0.5,5,1c2,0.6,3.6,1.4,4.8,2.5c1.2,1,2.3,2.5,3.2,4.4c0.8,2,1.2,4.3,1.2,7v11.7
		c0,2.5-0.4,4.6-1.2,6.5c-0.8,1.9-1.8,3.3-3.1,4.3c-1.1,0.9-2.6,1.7-4.5,2.3c-1.9,0.6-3.7,0.9-5.5,1.1c-1.6,0.2-3.6,0.2-5.9,0.2
		C287.7,87.8,285.7,87.7,284.1,87.5z M295.2,79.8c1.1-0.4,2-0.9,2.4-1.7s0.7-1.9,0.7-3.4v-15c0-2.2-0.6-3.7-1.7-4.6
		c-1.1-0.9-3.3-1.3-6.5-1.3c-3.2,0-5.3,0.4-6.5,1.3c-1.1,0.9-1.7,2.4-1.7,4.6v15c0,1.5,0.2,2.6,0.7,3.4c0.5,0.8,1.3,1.3,2.4,1.7
		s2.8,0.5,5.1,0.5C292.4,80.3,294.1,80.1,295.2,79.8z"/>
	<path class="st0" d="M319.9,29.7h11.9v57.3h-11.9V29.7z"/>
	<path class="st0" d="M345.6,86.7c-1.8-0.7-3.1-1.9-3.8-3.7c-0.7-1.8-1.1-4.4-1.1-8c0-3.2,0.4-5.6,1.2-7.4c0.8-1.8,2.1-3.1,3.8-3.9
		c1.8-0.8,4.2-1.2,7.3-1.2h13.4v-2.7c0-1.7-0.2-3-0.7-3.8c-0.5-0.8-1.3-1.4-2.5-1.7c-1.2-0.3-3.1-0.5-5.5-0.5c-3.4,0-8,0.3-13.9,1
		v-7.5c4.3-0.5,9.4-0.8,15.1-0.8c5.1,0,9,0.4,11.7,1.1c2.8,0.8,4.7,2.1,5.9,3.9c1.2,1.9,1.8,4.6,1.8,8.1v27.3h-11.7v-3.6
		c-0.9,1.6-2.2,2.7-3.8,3.4c-1.6,0.7-4.6,1.1-9,1.1C350.2,87.8,347.4,87.4,345.6,86.7z M363.7,80.1c0.8-0.1,1.3-0.3,1.6-0.5
		c0.3-0.2,0.6-0.6,0.8-1.1c0.2-0.4,0.3-1,0.3-1.7v-7.7h-8.2c-1.9,0-3.2,0.1-3.9,0.4c-0.8,0.2-1.3,0.7-1.6,1.5
		c-0.3,0.7-0.4,2-0.4,3.9c0,1.8,0.1,3.1,0.4,3.8c0.3,0.7,0.8,1.2,1.6,1.4c0.8,0.2,2.2,0.3,4.2,0.3C360.9,80.3,362.7,80.2,363.7,80.1
		z"/>
	<path class="st1" d="M389.3,64.4c0-6.2,0.9-11.9,2.6-17.2c1.7-5.3,4.4-10.5,8.1-15.8h11.1c-6.8,11.2-10.1,22.2-10.1,33
		c0,11.1,3.4,22.1,10.2,33H400C392.9,87.3,389.3,76.3,389.3,64.4z"/>
	<path class="st1" d="M422.3,64.4c0-10.8-3.4-21.8-10.1-33h11.1c3.7,5.3,6.4,10.6,8.1,15.8c1.7,5.3,2.6,11,2.6,17.2
		c0,11.9-3.6,22.9-10.7,33h-11.2C418.9,86.5,422.3,75.5,422.3,64.4z"/>
</g>
</svg>
