<?xml version="1.0" encoding="utf-8"?>
<!-- Generator: Adobe Illustrator 23.0.1, SVG Export Plug-In . SVG Version: 6.00 Build 0)  -->
<svg version="1.1" id="Camada_1" xmlns="http://www.w3.org/2000/svg" xmlns:xlink="http://www.w3.org/1999/xlink" x="0px" y="0px"
	 viewBox="0 0 1120 565" style="enable-background:new 0 0 1120 565;" xml:space="preserve">
<style type="text/css">
	.st0{fill:none;stroke:#FFA62B;stroke-width:3;stroke-linecap:round;stroke-linejoin:round;stroke-miterlimit:10;}
	.st1{fill:#16697A;}
</style>
<path class="st0" d="M1020.8,183.2c0,5.6-4.6,10.2-10.2,10.2c-5.6,0-10.2-4.6-10.2-10.2c0-5.6,4.6-10.2,10.2-10.2
	C1016.2,173,1020.8,177.6,1020.8,183.2z"/>
<path class="st0" d="M1018,190.3l7.2,7.2"/>
<path class="st0" d="M276.8,153.2l10.7,10.7"/>
<path class="st0" d="M287.6,153.2l-10.7,10.7"/>
<path class="st0" d="M892.2,406.6l10.7,10.7"/>
<path class="st0" d="M902.9,406.6l-10.7,10.7"/>
<path class="st0" d="M305.7,501.1v15.2"/>
<path class="st0" d="M313.3,508.7h-15.2"/>
<path class="st0" d="M100.7,250.2c0,5.1-4.1,9.2-9.2,9.2c-5.1,0-9.2-4.1-9.2-9.2c0-5.1,4.1-9.2,9.2-9.2
	C96.6,241,100.7,245.2,100.7,250.2z"/>
<path class="st0" d="M643.6,11.1c0,5.1-4.1,9.2-9.2,9.2c-5.1,0-9.2-4.1-9.2-9.2c0-5.1,4.1-9.2,9.2-9.2C639.5,1.8,643.6,6,643.6,11.1
	z"/>
<path class="st0" d="M779,553.6c0,5.1-4.1,9.2-9.2,9.2c-5.1,0-9.2-4.1-9.2-9.2c0-5.1,4.1-9.2,9.2-9.2
	C774.8,544.4,779,548.5,779,553.6z"/>
<path class="st1" d="M4.1,377.7c1.8,0,3.3-1.5,3.3-3.3c0-1.8-1.5-3.3-3.3-3.3s-3.3,1.5-3.3,3.3C0.8,376.2,2.3,377.7,4.1,377.7z"/>
<path class="st1" d="M27.5,377.7c1.8,0,3.3-1.5,3.3-3.3c0-1.8-1.5-3.3-3.3-3.3c-1.8,0-3.3,1.5-3.3,3.3
	C24.1,376.2,25.6,377.7,27.5,377.7z"/>
<path class="st1" d="M50.8,377.7c1.8,0,3.3-1.5,3.3-3.3c0-1.8-1.5-3.3-3.3-3.3s-3.3,1.5-3.3,3.3C47.5,376.2,49,377.7,50.8,377.7z"/>
<path class="st1" d="M74.1,377.7c1.8,0,3.3-1.5,3.3-3.3c0-1.8-1.5-3.3-3.3-3.3c-1.8,0-3.3,1.5-3.3,3.3
	C70.8,376.2,72.3,377.7,74.1,377.7z"/>
<path class="st1" d="M97.5,377.7c1.8,0,3.3-1.5,3.3-3.3c0-1.8-1.5-3.3-3.3-3.3c-1.8,0-3.3,1.5-3.3,3.3
	C94.1,376.2,95.6,377.7,97.5,377.7z"/>
<path class="st1" d="M120.8,377.7c1.8,0,3.3-1.5,3.3-3.3c0-1.8-1.5-3.3-3.3-3.3c-1.8,0-3.3,1.5-3.3,3.3
	C117.5,376.2,119,377.7,120.8,377.7z"/>
<path class="st1" d="M4.1,401c1.8,0,3.3-1.5,3.3-3.3c0-1.8-1.5-3.3-3.3-3.3s-3.3,1.5-3.3,3.3C0.8,399.5,2.3,401,4.1,401z"/>
<path class="st1" d="M27.5,401c1.8,0,3.3-1.5,3.3-3.3c0-1.8-1.5-3.3-3.3-3.3c-1.8,0-3.3,1.5-3.3,3.3C24.1,399.5,25.6,401,27.5,401z"
	/>
<path class="st1" d="M50.8,401c1.8,0,3.3-1.5,3.3-3.3c0-1.8-1.5-3.3-3.3-3.3s-3.3,1.5-3.3,3.3C47.5,399.5,49,401,50.8,401z"/>
<path class="st1" d="M74.1,401c1.8,0,3.3-1.5,3.3-3.3c0-1.8-1.5-3.3-3.3-3.3c-1.8,0-3.3,1.5-3.3,3.3C70.8,399.5,72.3,401,74.1,401z"
	/>
<path class="st1" d="M97.5,401c1.8,0,3.3-1.5,3.3-3.3c0-1.8-1.5-3.3-3.3-3.3c-1.8,0-3.3,1.5-3.3,3.3C94.1,399.5,95.6,401,97.5,401z"
	/>
<path class="st1" d="M120.8,401c1.8,0,3.3-1.5,3.3-3.3c0-1.8-1.5-3.3-3.3-3.3c-1.8,0-3.3,1.5-3.3,3.3C117.5,399.5,119,401,120.8,401
	z"/>
<path class="st1" d="M4.1,424.4c1.8,0,3.3-1.5,3.3-3.3s-1.5-3.3-3.3-3.3s-3.3,1.5-3.3,3.3S2.3,424.4,4.1,424.4z"/>
<path class="st1" d="M27.5,424.4c1.8,0,3.3-1.5,3.3-3.3s-1.5-3.3-3.3-3.3c-1.8,0-3.3,1.5-3.3,3.3S25.6,424.4,27.5,424.4z"/>
<path class="st1" d="M50.8,424.4c1.8,0,3.3-1.5,3.3-3.3s-1.5-3.3-3.3-3.3s-3.3,1.5-3.3,3.3S49,424.4,50.8,424.4z"/>
<path class="st1" d="M74.1,424.4c1.8,0,3.3-1.5,3.3-3.3s-1.5-3.3-3.3-3.3c-1.8,0-3.3,1.5-3.3,3.3S72.3,424.4,74.1,424.4z"/>
<path class="st1" d="M97.5,424.4c1.8,0,3.3-1.5,3.3-3.3s-1.5-3.3-3.3-3.3c-1.8,0-3.3,1.5-3.3,3.3S95.6,424.4,97.5,424.4z"/>
<path class="st1" d="M120.8,424.4c1.8,0,3.3-1.5,3.3-3.3s-1.5-3.3-3.3-3.3c-1.8,0-3.3,1.5-3.3,3.3S119,424.4,120.8,424.4z"/>
<path class="st1" d="M4.1,447.8c1.8,0,3.3-1.5,3.3-3.3s-1.5-3.3-3.3-3.3s-3.3,1.5-3.3,3.3S2.3,447.8,4.1,447.8z"/>
<path class="st1" d="M27.5,447.8c1.8,0,3.3-1.5,3.3-3.3s-1.5-3.3-3.3-3.3c-1.8,0-3.3,1.5-3.3,3.3S25.6,447.8,27.5,447.8z"/>
<path class="st1" d="M50.8,447.8c1.8,0,3.3-1.5,3.3-3.3s-1.5-3.3-3.3-3.3s-3.3,1.5-3.3,3.3S49,447.8,50.8,447.8z"/>
<path class="st1" d="M74.1,447.8c1.8,0,3.3-1.5,3.3-3.3s-1.5-3.3-3.3-3.3c-1.8,0-3.3,1.5-3.3,3.3S72.3,447.8,74.1,447.8z"/>
<path class="st1" d="M97.5,447.8c1.8,0,3.3-1.5,3.3-3.3s-1.5-3.3-3.3-3.3c-1.8,0-3.3,1.5-3.3,3.3S95.6,447.8,97.5,447.8z"/>
<path class="st1" d="M120.8,447.8c1.8,0,3.3-1.5,3.3-3.3s-1.5-3.3-3.3-3.3c-1.8,0-3.3,1.5-3.3,3.3S119,447.8,120.8,447.8z"/>
<path class="st1" d="M774,144.6c1.8,0,3.3-1.5,3.3-3.3c0-1.8-1.5-3.3-3.3-3.3c-1.8,0-3.3,1.5-3.3,3.3
	C770.6,143.1,772.1,144.6,774,144.6z"/>
<path class="st1" d="M797.3,144.6c1.8,0,3.3-1.5,3.3-3.3c0-1.8-1.5-3.3-3.3-3.3c-1.8,0-3.3,1.5-3.3,3.3
	C794,143.1,795.5,144.6,797.3,144.6z"/>
<path class="st1" d="M820.6,144.6c1.8,0,3.3-1.5,3.3-3.3c0-1.8-1.5-3.3-3.3-3.3c-1.8,0-3.3,1.5-3.3,3.3
	C817.3,143.1,818.8,144.6,820.6,144.6z"/>
<path class="st1" d="M774,168c1.8,0,3.3-1.5,3.3-3.3c0-1.8-1.5-3.3-3.3-3.3c-1.8,0-3.3,1.5-3.3,3.3C770.6,166.5,772.1,168,774,168z"
	/>
<path class="st1" d="M797.3,168c1.8,0,3.3-1.5,3.3-3.3c0-1.8-1.5-3.3-3.3-3.3c-1.8,0-3.3,1.5-3.3,3.3C794,166.5,795.5,168,797.3,168
	z"/>
<path class="st1" d="M820.6,168c1.8,0,3.3-1.5,3.3-3.3c0-1.8-1.5-3.3-3.3-3.3c-1.8,0-3.3,1.5-3.3,3.3
	C817.3,166.5,818.8,168,820.6,168z"/>
<path class="st1" d="M261.7,22.4c1.8,0,3.3-1.5,3.3-3.3c0-1.8-1.5-3.3-3.3-3.3c-1.8,0-3.3,1.5-3.3,3.3
	C258.4,20.9,259.9,22.4,261.7,22.4z"/>
<path class="st1" d="M285,22.4c1.8,0,3.3-1.5,3.3-3.3c0-1.8-1.5-3.3-3.3-3.3s-3.3,1.5-3.3,3.3C281.7,20.9,283.2,22.4,285,22.4z"/>
<path class="st1" d="M308.4,22.4c1.8,0,3.3-1.5,3.3-3.3c0-1.8-1.5-3.3-3.3-3.3c-1.8,0-3.3,1.5-3.3,3.3
	C305,20.9,306.5,22.4,308.4,22.4z"/>
<path class="st1" d="M261.7,45.8c1.8,0,3.3-1.5,3.3-3.3c0-1.8-1.5-3.3-3.3-3.3c-1.8,0-3.3,1.5-3.3,3.3
	C258.4,44.3,259.9,45.8,261.7,45.8z"/>
<path class="st1" d="M285,45.8c1.8,0,3.3-1.5,3.3-3.3c0-1.8-1.5-3.3-3.3-3.3s-3.3,1.5-3.3,3.3C281.7,44.3,283.2,45.8,285,45.8z"/>
<path class="st1" d="M308.4,45.8c1.8,0,3.3-1.5,3.3-3.3c0-1.8-1.5-3.3-3.3-3.3c-1.8,0-3.3,1.5-3.3,3.3
	C305,44.3,306.5,45.8,308.4,45.8z"/>
<path class="st1" d="M1116.7,377.7c1.8,0,3.3-1.5,3.3-3.3c0-1.8-1.5-3.3-3.3-3.3c-1.8,0-3.3,1.5-3.3,3.3
	C1113.3,376.2,1114.8,377.7,1116.7,377.7z"/>
<path class="st1" d="M1116.7,401.1c1.8,0,3.3-1.5,3.3-3.3c0-1.8-1.5-3.3-3.3-3.3c-1.8,0-3.3,1.5-3.3,3.3
	C1113.3,399.6,1114.8,401.1,1116.7,401.1z"/>
<path class="st1" d="M1116.7,424.4c1.8,0,3.3-1.5,3.3-3.3s-1.5-3.3-3.3-3.3c-1.8,0-3.3,1.5-3.3,3.3S1114.8,424.4,1116.7,424.4z"/>
<path class="st1" d="M1116.7,447.8c1.8,0,3.3-1.5,3.3-3.3s-1.5-3.3-3.3-3.3c-1.8,0-3.3,1.5-3.3,3.3S1114.8,447.8,1116.7,447.8z"/>
<path class="st1" d="M1116.7,471.1c1.8,0,3.3-1.5,3.3-3.3c0-1.8-1.5-3.3-3.3-3.3c-1.8,0-3.3,1.5-3.3,3.3
	C1113.3,469.6,1114.8,471.1,1116.7,471.1z"/>
<path class="st1" d="M1116.7,494.5c1.8,0,3.3-1.5,3.3-3.3s-1.5-3.3-3.3-3.3c-1.8,0-3.3,1.5-3.3,3.3S1114.8,494.5,1116.7,494.5z"/>
<path class="st1" d="M1116.7,517.9c1.8,0,3.3-1.5,3.3-3.3c0-1.8-1.5-3.3-3.3-3.3c-1.8,0-3.3,1.5-3.3,3.3
	C1113.3,516.4,1114.8,517.9,1116.7,517.9z"/>
<path class="st1" d="M1093.3,377.7c1.9,0,3.3-1.5,3.3-3.3c0-1.8-1.5-3.3-3.3-3.3c-1.8,0-3.3,1.5-3.3,3.3
	C1090,376.2,1091.5,377.7,1093.3,377.7z"/>
<path class="st1" d="M1093.3,401.1c1.9,0,3.3-1.5,3.3-3.3c0-1.8-1.5-3.3-3.3-3.3c-1.8,0-3.3,1.5-3.3,3.3
	C1090,399.6,1091.5,401.1,1093.3,401.1z"/>
<path class="st1" d="M1093.3,424.4c1.9,0,3.3-1.5,3.3-3.3s-1.5-3.3-3.3-3.3c-1.8,0-3.3,1.5-3.3,3.3S1091.5,424.4,1093.3,424.4z"/>
<path class="st1" d="M1093.3,447.8c1.9,0,3.3-1.5,3.3-3.3s-1.5-3.3-3.3-3.3c-1.8,0-3.3,1.5-3.3,3.3S1091.5,447.8,1093.3,447.8z"/>
<path class="st1" d="M1093.3,471.1c1.9,0,3.3-1.5,3.3-3.3c0-1.8-1.5-3.3-3.3-3.3c-1.8,0-3.3,1.5-3.3,3.3
	C1090,469.6,1091.5,471.1,1093.3,471.1z"/>
<path class="st1" d="M1093.3,494.5c1.9,0,3.3-1.5,3.3-3.3s-1.5-3.3-3.3-3.3c-1.8,0-3.3,1.5-3.3,3.3S1091.5,494.5,1093.3,494.5z"/>
<path class="st1" d="M1093.3,517.9c1.9,0,3.3-1.5,3.3-3.3c0-1.8-1.5-3.3-3.3-3.3c-1.8,0-3.3,1.5-3.3,3.3
	C1090,516.4,1091.5,517.9,1093.3,517.9z"/>
<path class="st1" d="M1070,377.7c1.8,0,3.3-1.5,3.3-3.3c0-1.8-1.5-3.3-3.3-3.3c-1.8,0-3.3,1.5-3.3,3.3
	C1066.7,376.2,1068.2,377.7,1070,377.7z"/>
<path class="st1" d="M1070,401.1c1.8,0,3.3-1.5,3.3-3.3c0-1.8-1.5-3.3-3.3-3.3c-1.8,0-3.3,1.5-3.3,3.3
	C1066.7,399.6,1068.2,401.1,1070,401.1z"/>
<path class="st1" d="M1070,424.4c1.8,0,3.3-1.5,3.3-3.3s-1.5-3.3-3.3-3.3c-1.8,0-3.3,1.5-3.3,3.3S1068.2,424.4,1070,424.4z"/>
<path class="st1" d="M1070,447.8c1.8,0,3.3-1.5,3.3-3.3s-1.5-3.3-3.3-3.3c-1.8,0-3.3,1.5-3.3,3.3S1068.2,447.8,1070,447.8z"/>
<path class="st1" d="M1070,471.1c1.8,0,3.3-1.5,3.3-3.3c0-1.8-1.5-3.3-3.3-3.3c-1.8,0-3.3,1.5-3.3,3.3
	C1066.7,469.6,1068.2,471.1,1070,471.1z"/>
<path class="st1" d="M1070,494.5c1.8,0,3.3-1.5,3.3-3.3s-1.5-3.3-3.3-3.3c-1.8,0-3.3,1.5-3.3,3.3S1068.2,494.5,1070,494.5z"/>
<path class="st1" d="M1070,517.9c1.8,0,3.3-1.5,3.3-3.3c0-1.8-1.5-3.3-3.3-3.3c-1.8,0-3.3,1.5-3.3,3.3
	C1066.7,516.4,1068.2,517.9,1070,517.9z"/>
<path class="st1" d="M1046.7,377.7c1.8,0,3.3-1.5,3.3-3.3c0-1.8-1.5-3.3-3.3-3.3c-1.8,0-3.3,1.5-3.3,3.3
	C1043.3,376.2,1044.8,377.7,1046.7,377.7z"/>
<path class="st1" d="M1046.7,401.1c1.8,0,3.3-1.5,3.3-3.3c0-1.8-1.5-3.3-3.3-3.3s-3.3,1.5-3.3,3.3
	C1043.3,399.6,1044.8,401.1,1046.7,401.1z"/>
<path class="st1" d="M1046.7,424.4c1.8,0,3.3-1.5,3.3-3.3s-1.5-3.3-3.3-3.3s-3.3,1.5-3.3,3.3S1044.8,424.4,1046.7,424.4z"/>
<path class="st1" d="M1046.7,447.8c1.8,0,3.3-1.5,3.3-3.3s-1.5-3.3-3.3-3.3s-3.3,1.5-3.3,3.3S1044.8,447.8,1046.7,447.8z"/>
<path class="st1" d="M1046.7,471.1c1.8,0,3.3-1.5,3.3-3.3c0-1.8-1.5-3.3-3.3-3.3s-3.3,1.5-3.3,3.3
	C1043.3,469.6,1044.8,471.1,1046.7,471.1z"/>
<path class="st1" d="M1046.7,494.5c1.8,0,3.3-1.5,3.3-3.3s-1.5-3.3-3.3-3.3s-3.3,1.5-3.3,3.3S1044.8,494.5,1046.7,494.5z"/>
<path class="st1" d="M1046.7,517.9c1.8,0,3.3-1.5,3.3-3.3c0-1.8-1.5-3.3-3.3-3.3s-3.3,1.5-3.3,3.3
	C1043.3,516.4,1044.8,517.9,1046.7,517.9z"/>
</svg>
